<svg xmlns="http://www.w3.org/2000/svg" width="246.872" height="45.975" viewBox="0 0 246.872 45.975">
  <g id="Component_2_1" data-name="Component 2 – 1" transform="translate(0.001 0.001)">
    <path id="Path_488" data-name="Path 488" d="M37.5,16.1H26.705a1.069,1.069,0,0,0-.8,1.7L52.281,61.357a1,1,0,0,0,.8.5H63.87a1.069,1.069,0,0,0,.8-1.7L38.294,16.6a1,1,0,0,0-.8-.5Z" transform="translate(-0.024 -16.1)" fill="#fdd000"/>
    <path id="Path_489" data-name="Path 489" d="M50.907,17.8l4.4,7.293a1,1,0,0,0,.8.5h9.89a1.117,1.117,0,0,1,.9,1.6l-4.2,9.191a1.069,1.069,0,0,0,.1,1.1l4.7,7.793a1,1,0,0,0,1.7-.1L82.677,17.8a1.069,1.069,0,0,0-.9-1.6H51.706a1,1,0,0,0-.8,1.6Z" transform="translate(-0.048 -16.1)" fill="#fdd000"/>
    <path id="Path_490" data-name="Path 490" d="M32.475,42.276l-2,1.7a1,1,0,0,1-1.5-.3L12.594,16.7a1,1,0,0,0-.8-.5H1.005a1.069,1.069,0,0,0-.8,1.7L26.58,61.556a1,1,0,0,0,1.5.3l10.79-9.191a1.21,1.21,0,0,0,.2-1.5l-5.2-8.492a.849.849,0,0,0-1.4-.4Z" transform="translate(0 -16.1)" fill="#fdd000"/>
    <path id="Path_491" data-name="Path 491" d="M119.087,54.68a.279.279,0,0,1-.4.113.287.287,0,0,1-.1-.113l-4.995-11.489c-.2-.4-.3-.9-.4-1a9.23,9.23,0,0,1-.4,1l-5.1,11.49a.279.279,0,0,1-.4.113.287.287,0,0,1-.1-.113L98.906,34.6c-.1-.2.1-.4.3-.4h4.2c.1,0,.2.1.3.2l3.9,9.495a8.912,8.912,0,0,1,.3.9l.4-1,4.6-9.588a.287.287,0,0,1,.1-.113.279.279,0,0,1,.4.113l4.6,9.588a9.228,9.228,0,0,1,.4,1s.2-.6.4-1.1l3.9-9.291c0-.1.2-.2.3-.2h4.1c.2,0,.4.2.3.4Z" transform="translate(-0.093 -16.115)" fill="#3d3d3d"/>
    <path id="Path_492" data-name="Path 492" d="M133.9,45.089a.268.268,0,0,0-.222.077.279.279,0,0,0-.065.1.288.288,0,0,0-.013.12c.3,3.2,2.4,5.594,5.795,5.594a9.43,9.43,0,0,0,6.294-2.3.3.3,0,0,1,.4,0l2.3,2.494a.3.3,0,0,1,0,.4,12.986,12.986,0,0,1-9.092,3.6c-5.695,0-10.19-4.1-10.19-11.089,0-5.995,4.1-10.69,9.991-10.69s9.691,4.6,9.791,11.089a.258.258,0,0,1-.013.12.263.263,0,0,1-.064.1.268.268,0,0,1-.222.077H133.9ZM139,37.8a5.206,5.206,0,0,0-5.1,3.3c-.1.2.1.4.3.4H143.7c.2,0,.4-.2.3-.4A5.12,5.12,0,0,0,139,37.8Z" transform="translate(-0.122 -16.116)" fill="#3d3d3d"/>
    <path id="Path_493" data-name="Path 493" d="M165.095,38.7a.25.25,0,0,1-.067.1.255.255,0,0,1-.106.056.249.249,0,0,1-.12,0,.252.252,0,0,1-.107-.056,4.543,4.543,0,0,0-2.5-.8c-2.5,0-4.3,2.3-4.3,6.294v10.09a.258.258,0,0,1-.013.12.263.263,0,0,1-.064.1.271.271,0,0,1-.222.077h-3.9a.272.272,0,0,1-.222-.077.279.279,0,0,1-.064-.1.273.273,0,0,1-.013-.12V34.5a.273.273,0,0,1,.013-.12.279.279,0,0,1,.064-.1.271.271,0,0,1,.222-.077h3.9a.271.271,0,0,1,.222.077.263.263,0,0,1,.064.1.259.259,0,0,1,.013.12v1.3a.285.285,0,0,0,.039.173A.277.277,0,0,0,158.4,36a5.916,5.916,0,0,1,4.7-2.4,4.747,4.747,0,0,1,3.4,1.2.367.367,0,0,1,.1.3Z" transform="translate(-0.145 -16.115)" fill="#3d3d3d"/>
    <path id="Path_494" data-name="Path 494" d="M182.794,54.366v-1.1a.279.279,0,0,0-.5-.2,6.7,6.7,0,0,1-4.995,2.2c-5.1,0-8.592-4.995-8.592-10.99s3.6-10.69,8.592-10.69a6.314,6.314,0,0,1,4.995,2.2.279.279,0,0,0,.5-.2V19a.272.272,0,0,1,.013-.12.263.263,0,0,1,.064-.1.271.271,0,0,1,.222-.077h3.9a.271.271,0,0,1,.222.077.264.264,0,0,1,.064.1.272.272,0,0,1,.013.12V54.366a.273.273,0,0,1-.013.12.263.263,0,0,1-.064.1.268.268,0,0,1-.1.064.265.265,0,0,1-.12.013h-3.9a.318.318,0,0,1-.3-.3Zm-4.6-16.484c-3.2,0-4.995,3.2-4.995,6.594s1.8,6.494,4.9,6.494,5.1-3.2,5.1-6.594S181.295,37.882,178.2,37.882Z" transform="translate(-0.16 -16.103)" fill="#3d3d3d"/>
    <path id="Path_495" data-name="Path 495" d="M196.4,45.089a.268.268,0,0,0-.222.077.279.279,0,0,0-.065.1.288.288,0,0,0-.013.12c.3,3.2,2.4,5.594,5.795,5.594a9.429,9.429,0,0,0,6.294-2.3.3.3,0,0,1,.4,0l2.3,2.494a.3.3,0,0,1,0,.4,12.986,12.986,0,0,1-9.092,3.6c-5.695,0-10.19-4.1-10.19-11.089,0-5.995,4.1-10.69,9.991-10.69s9.691,4.6,9.791,11.089a.258.258,0,0,1-.013.12.263.263,0,0,1-.064.1.268.268,0,0,1-.222.077H196.4Zm5.1-7.293a5.206,5.206,0,0,0-5.1,3.3c-.1.2.1.4.3.4H206.2c.2,0,.4-.2.3-.4a5.12,5.12,0,0,0-4.995-3.3Z" transform="translate(-0.18 -16.116)" fill="#3d3d3d"/>
    <path id="Path_496" data-name="Path 496" d="M222,54.679,213.107,34.6c-.1-.2.1-.4.3-.4h4.3c.1,0,.2.1.3.2l4.2,9.691a4.306,4.306,0,0,1,.3,1,4.21,4.21,0,0,1,.3-1L227,34.4c0-.1.2-.2.3-.2h4.1c.2,0,.4.2.3.4L222.7,54.679C222.4,54.881,222.1,54.881,222,54.679Z" transform="translate(-0.201 -16.116)" fill="#3d3d3d"/>
    <path id="Path_497" data-name="Path 497" d="M240.4,55.18a10.822,10.822,0,0,1-6.8-2.4.6.6,0,0,1-.1-.4l1.9-3c.1-.1.3-.2.4-.1a7.925,7.925,0,0,0,4.3,1.7c1.3,0,2.5-.5,2.5-1.8s-1.2-2.2-2.9-3.1c-2.5-1.3-5.894-2.7-5.894-6.8,0-3.2,2.9-5.795,6.494-5.795a10.508,10.508,0,0,1,6.094,1.7c.1.1.2.2.1.4l-1.6,3.2a.249.249,0,0,1-.067.1.255.255,0,0,1-.106.056.249.249,0,0,1-.12,0,.252.252,0,0,1-.107-.056,7.56,7.56,0,0,0-4-1.2c-1,0-2.2.3-2.2,1.6,0,1.1,1.4,1.8,3.1,2.7,2.5,1.3,5.695,3.1,5.695,7.093C247.091,52.482,244.3,55.18,240.4,55.18Z" transform="translate(-0.22 -16.115)" fill="#3d3d3d"/>
  </g>
</svg>
